<?xml version="1.0" encoding="utf-8"?>
<!-- Generator: Adobe Illustrator 24.1.0, SVG Export Plug-In . SVG Version: 6.00 Build 0)  -->
<svg version="1.1" xmlns="http://www.w3.org/2000/svg" xmlns:xlink="http://www.w3.org/1999/xlink" x="0px" y="0px"
	 viewBox="0 0 388.32 102.96" style="enable-background:new 0 0 388.32 102.96;" xml:space="preserve">
<style type="text/css">
	.st0{enable-background:new    ;}
	.st1{fill:#10B981;}
</style>
<g id="Wh___is">
	<g>
		<path d="M69.31,100.46L58.56,56.29l-10.74,44.17H23.44L4.57,26.21h18.58l13.06,53.91l13.06-53.91h19.59l12.92,53.91l13.21-53.91
			h17.85l-18.87,74.25H69.31z"/>
		<path d="M138.25,33.77c0,0,6.82-8.86,21.77-8.86c17.42,0,28.74,11.92,28.74,29.93v45.63h-18.14V57.45
			c0-9.44-5.52-15.69-14.51-15.69c-10.74,0-17.85,6.68-17.85,17.58v41.12h-18.14V0.93h18.14V33.77z"/>
		<path d="M286.73,18.94V0.93h18.29v18.02H286.73z M286.73,100.46V26.21h18.29v74.25H286.73z"/>
		<path d="M333.61,76.92c0,4.65,3.05,11.04,14.95,11.19c8.42,0,12.19-4.07,12.19-7.85c0-14.09-44.85,0.15-44.85-30.95
			c0-13.22,11.76-23.83,30.33-23.83s30.33,9.88,31.5,24.41h-18.58c-0.29-4.07-1.02-10.17-12.05-10.17c-6.68,0-12.19,1.89-12.19,6.97
			c0,14.39,45.86,1.89,45.86,30.22c0,17.87-15.09,24.85-33.38,24.85c-19.88,0-32.37-10.46-32.95-24.85H333.61z"/>
	</g>
</g>
<g id="椭圆_1_1_" class="st0">
	<g id="椭圆_1">
		<g>
			<path d="M237.05,41.98c12.09,0,21.93,9.86,21.93,21.97s-9.84,21.97-21.93,21.97s-21.93-9.86-21.93-21.97
				S224.95,41.98,237.05,41.98 M237.05,24.98c-21.5,0-38.93,17.45-38.93,38.97s17.43,38.97,38.93,38.97s38.93-17.45,38.93-38.97
				S258.55,24.98,237.05,24.98L237.05,24.98z"/>
		</g>
	</g>
</g>
<g id="椭圆_1_拷贝_1_" class="st0">
	<g id="椭圆_1_拷贝">
		<g>
			<ellipse class="st1" cx="237.25" cy="64.15" rx="13.32" ry="13.34"/>
		</g>
		<g>
			<path class="st1" d="M237.25,50.82c-7.36,0-13.32,5.97-13.32,13.34s5.96,13.34,13.32,13.34s13.32-5.97,13.32-13.34
				S244.6,50.82,237.25,50.82L237.25,50.82z"/>
		</g>
	</g>
</g>
</svg>
